<?xml version="1.0" encoding="UTF-8" standalone="no"?>
<!DOCTYPE svg PUBLIC "-//W3C//DTD SVG 1.1//EN" "http://www.w3.org/Graphics/SVG/1.1/DTD/svg11.dtd">
<svg width="100%" height="100%" viewBox="0 0 32 32" version="1.1" xmlns="http://www.w3.org/2000/svg" xmlns:xlink="http://www.w3.org/1999/xlink" xml:space="preserve" xmlns:serif="http://www.serif.com/" style="fill-rule:evenodd;clip-rule:evenodd;stroke-linejoin:round;stroke-miterlimit:2;">
    <g transform="matrix(1,0,0,1,-160,0)">
        <g id="logo_32" transform="matrix(0.666667,0,0,0.666667,96,0)">
            <rect x="96" y="0" width="48" height="48" style="fill:none;"/>
            <g transform="matrix(0.75,0,0,0.75,24,0)">
                <rect x="96" y="0" width="64" height="64" style="fill:none;"/>
            </g>
            <g transform="matrix(0.75,0,0,0.75,24,0)">
                <path d="M151,55C156.207,49.793 136,36 136,36L132,40C132,40 145.793,60.207 151,55Z" style="fill:white;"/>
            </g>
            <g transform="matrix(0.75,0,0,0.75,24,0)">
                <path d="M137,20C129.735,27.106 109.237,47.296 106,50C102.763,52.704 105.861,60.622 112,54C118.139,47.378 127.639,35.875 128,36C128.361,36.125 129.313,37 131,37C132.687,37 140.501,28.326 147,20C153.499,11.674 150.999,10 149,10C147.001,10 144.265,12.894 137,20Z" style="fill:white;"/>
            </g>
            <g transform="matrix(0.75,0,0,0.75,24,0)">
                <path d="M111.64,8.36L113,7C113,7 123.98,15.681 126,19C128.02,22.319 127,27 127,27L123,31C123,31 118.069,31.931 115,30C110.775,27.342 103,17 103,17L104.567,15.433L114.605,26.004C114.967,26.385 115.586,26.386 115.986,26.006C116.386,25.626 116.417,25.008 116.055,24.626L105.981,14.019L107.396,12.604L117.505,23.249C117.867,23.63 118.486,23.631 118.886,23.251C119.287,22.871 119.318,22.253 118.956,21.872L108.811,11.189L110.225,9.775L120.406,20.495C120.768,20.876 121.387,20.877 121.787,20.497C122.187,20.117 122.218,19.499 121.856,19.117L111.64,8.36Z" style="fill:white;"/>
            </g>
        </g>
    </g>
</svg>
