<?xml version="1.0" encoding="UTF-8" standalone="no"?>
<!DOCTYPE svg PUBLIC "-//W3C//DTD SVG 1.1//EN" "http://www.w3.org/Graphics/SVG/1.1/DTD/svg11.dtd">
<svg width="100%" height="100%" viewBox="0 0 240 64" version="1.1" xmlns="http://www.w3.org/2000/svg" xmlns:xlink="http://www.w3.org/1999/xlink" xml:space="preserve" xmlns:serif="http://www.serif.com/" style="fill-rule:evenodd;clip-rule:evenodd;stroke-linejoin:round;stroke-miterlimit:2;">
    <g transform="matrix(1,0,0,1,-256,0)">
        <g id="rating_stars_horizontal_FFFFFF" transform="matrix(1.83206,0,0,1.42399,-213.008,0)">
            <rect x="256" y="0" width="131" height="44.944" style="fill:none;"/>
            <clipPath id="_clip1">
                <rect x="256" y="0" width="131" height="44.944"/>
            </clipPath>
            <g clip-path="url(#_clip1)">
                <g transform="matrix(0.545833,0,0,0.702254,116.267,0)">
                    <path d="M496,0L256,0L256,64L496,64L496,0ZM287.217,17.528L290.809,28.584L302.434,28.584L293.029,35.416L296.621,46.472L287.217,39.639L277.812,46.472L281.405,35.416L272,28.584L283.625,28.584L287.217,17.528ZM420.392,17.528L423.984,28.584L435.608,28.584L426.204,35.416L429.796,46.472L420.392,39.639L410.987,46.472L414.579,35.416L405.175,28.584L416.799,28.584L420.392,17.528ZM331.608,17.528L335.201,28.584L346.825,28.584L337.421,35.416L341.013,46.472L331.608,39.639L322.204,46.472L325.796,35.416L316.392,28.584L328.016,28.584L331.608,17.528ZM464.783,17.528L468.375,28.584L480,28.584L470.595,35.416L474.188,46.472L464.783,39.639L455.379,46.472L458.971,35.416L449.566,28.584L461.191,28.584L464.783,17.528ZM376,17.528L379.592,28.584L391.217,28.584L381.812,35.416L385.405,46.472L376,39.639L366.595,46.472L370.188,35.416L360.783,28.584L372.408,28.584L376,17.528Z" style="fill:white;"/>
                </g>
            </g>
        </g>
    </g>
</svg>
