<?xml version="1.0" encoding="UTF-8" standalone="no"?>
<!DOCTYPE svg PUBLIC "-//W3C//DTD SVG 1.1//EN" "http://www.w3.org/Graphics/SVG/1.1/DTD/svg11.dtd">
<svg width="100%" height="100%" viewBox="0 0 64 240" version="1.1" xmlns="http://www.w3.org/2000/svg" xmlns:xlink="http://www.w3.org/1999/xlink" xml:space="preserve" xmlns:serif="http://www.serif.com/" style="fill-rule:evenodd;clip-rule:evenodd;stroke-linejoin:round;stroke-miterlimit:2;">
    <g transform="matrix(1,0,0,1,-192,0)">
        <g id="rating_stars_vertical_FFFFFF" transform="matrix(0.876712,0,0,1.61074,-40.3288,46.7114)">
            <rect x="265" y="-29" width="73" height="149" style="fill:none;"/>
            <g transform="matrix(1.14063,0,0,0.620833,46,-29)">
                <path d="M256,0L192,0L192,240L256,240L256,0ZM222,195L225.592,206.056L237.217,206.056L227.812,212.889L231.405,223.944L222,217.111L212.595,223.944L216.188,212.889L206.783,206.056L218.408,206.056L222,195ZM222,150.25L225.592,161.306L237.217,161.306L227.812,168.139L231.405,179.194L222,172.361L212.595,179.194L216.188,168.139L206.783,161.306L218.408,161.306L222,150.25ZM222,105.5L225.592,116.556L237.217,116.556L227.812,123.389L231.405,134.444L222,127.611L212.595,134.444L216.188,123.389L206.783,116.556L218.408,116.556L222,105.5ZM222,60.75L225.592,71.806L237.217,71.806L227.812,78.639L231.405,89.694L222,82.861L212.595,89.694L216.188,78.639L206.783,71.806L218.408,71.806L222,60.75ZM224,16L227.592,27.056L239.217,27.056L229.812,33.889L233.405,44.944L224,38.111L214.595,44.944L218.188,33.889L208.783,27.056L220.408,27.056L224,16Z" style="fill:white;"/>
            </g>
            <g transform="matrix(1.14063,0,0,0.620833,46,-29)">
                <path d="M216.955,204.056L220.098,194.382C220.366,193.558 221.134,193 222,193C222.866,193 223.634,193.558 223.902,194.382L227.045,204.056L237.217,204.056C238.083,204.056 238.851,204.614 239.119,205.438C239.387,206.262 239.093,207.164 238.392,207.674L230.163,213.652L233.307,223.326C233.574,224.15 233.281,225.053 232.58,225.562C231.879,226.072 230.93,226.072 230.229,225.562L222,219.584L213.771,225.562C213.07,226.072 212.121,226.072 211.42,225.562C210.719,225.053 210.426,224.15 210.693,223.326L213.837,213.652L205.608,207.674C204.907,207.164 204.613,206.262 204.881,205.438C205.149,204.614 205.917,204.056 206.783,204.056L216.955,204.056ZM222,195L225.592,206.056L237.217,206.056L227.812,212.889L231.405,223.944L222,217.111L212.595,223.944L216.188,212.889L206.783,206.056L218.408,206.056L222,195ZM216.955,159.306L220.098,149.632C220.366,148.808 221.134,148.25 222,148.25C222.866,148.25 223.634,148.808 223.902,149.632L227.045,159.306L237.217,159.306C238.083,159.306 238.851,159.864 239.119,160.688C239.387,161.512 239.093,162.414 238.392,162.924L230.163,168.902L233.307,178.576C233.574,179.4 233.281,180.303 232.58,180.812C231.879,181.322 230.93,181.322 230.229,180.812L222,174.834L213.771,180.812C213.07,181.322 212.121,181.322 211.42,180.812C210.719,180.303 210.426,179.4 210.693,178.576L213.837,168.902L205.608,162.924C204.907,162.414 204.613,161.512 204.881,160.688C205.149,159.864 205.917,159.306 206.783,159.306L216.955,159.306ZM222,150.25L225.592,161.306L237.217,161.306L227.812,168.139L231.405,179.194L222,172.361L212.595,179.194L216.188,168.139L206.783,161.306L218.408,161.306L222,150.25ZM216.955,114.556L220.098,104.882C220.366,104.058 221.134,103.5 222,103.5C222.866,103.5 223.634,104.058 223.902,104.882L227.045,114.556L237.217,114.556C238.083,114.556 238.851,115.114 239.119,115.938C239.387,116.762 239.093,117.664 238.392,118.174L230.163,124.152L233.307,133.826C233.574,134.65 233.281,135.553 232.58,136.062C231.879,136.572 230.93,136.572 230.229,136.062L222,130.084L213.771,136.062C213.07,136.572 212.121,136.572 211.42,136.062C210.719,135.553 210.426,134.65 210.693,133.826L213.837,124.152L205.608,118.174C204.907,117.664 204.613,116.762 204.881,115.938C205.149,115.114 205.917,114.556 206.783,114.556L216.955,114.556ZM222,105.5L225.592,116.556L237.217,116.556L227.812,123.389L231.405,134.444L222,127.611L212.595,134.444L216.188,123.389L206.783,116.556L218.408,116.556L222,105.5ZM216.955,69.806L220.098,60.132C220.366,59.308 221.134,58.75 222,58.75C222.866,58.75 223.634,59.308 223.902,60.132L227.045,69.806L237.217,69.806C238.083,69.806 238.851,70.364 239.119,71.188C239.387,72.012 239.093,72.914 238.392,73.424L230.163,79.402L233.307,89.076C233.574,89.9 233.281,90.803 232.58,91.312C231.879,91.822 230.93,91.822 230.229,91.312L222,85.334L213.771,91.312C213.07,91.822 212.121,91.822 211.42,91.312C210.719,90.803 210.426,89.9 210.693,89.076L213.837,79.402L205.608,73.424C204.907,72.914 204.613,72.012 204.881,71.188C205.149,70.364 205.917,69.806 206.783,69.806L216.955,69.806ZM222,60.75L225.592,71.806L237.217,71.806L227.812,78.639L231.405,89.694L222,82.861L212.595,89.694L216.188,78.639L206.783,71.806L218.408,71.806L222,60.75ZM218.955,25.056L222.098,15.382C222.366,14.558 223.134,14 224,14C224.866,14 225.634,14.558 225.902,15.382L229.045,25.056L239.217,25.056C240.083,25.056 240.851,25.614 241.119,26.438C241.387,27.262 241.093,28.164 240.392,28.674L232.163,34.652L235.307,44.326C235.574,45.15 235.281,46.053 234.58,46.562C233.879,47.072 232.93,47.072 232.229,46.562L224,40.584L215.771,46.562C215.07,47.072 214.121,47.072 213.42,46.562C212.719,46.053 212.426,45.15 212.693,44.326L215.837,34.652L207.608,28.674C206.907,28.164 206.613,27.262 206.881,26.438C207.149,25.614 207.917,25.056 208.783,25.056L218.955,25.056ZM224,16L227.592,27.056L239.217,27.056L229.812,33.889L233.405,44.944L224,38.111L214.595,44.944L218.188,33.889L208.783,27.056L220.408,27.056L224,16Z" style="fill:rgb(217,217,217);"/>
            </g>
        </g>
    </g>
</svg>
