<?xml version="1.0" encoding="UTF-8" standalone="no"?>
<!DOCTYPE svg PUBLIC "-//W3C//DTD SVG 1.1//EN" "http://www.w3.org/Graphics/SVG/1.1/DTD/svg11.dtd">
<svg width="100%" height="100%" viewBox="0 0 96 96" version="1.1" xmlns="http://www.w3.org/2000/svg" xmlns:xlink="http://www.w3.org/1999/xlink" xml:space="preserve" xmlns:serif="http://www.serif.com/" style="fill-rule:evenodd;clip-rule:evenodd;stroke-linejoin:round;stroke-miterlimit:2;">
    <g id="Artboard1" transform="matrix(0.450704,0,0,0.450704,0,0)">
        <rect x="0" y="0" width="213" height="213" style="fill:none;"/>
        <g transform="matrix(2.21875,0,0,2.21875,0,0)">
            <rect x="0" y="0" width="96" height="96" style="fill:none;"/>
            <path d="M25.83,9.994C12.777,17.629 4,31.798 4,48C4,72.284 23.716,92 48,92C72.284,92 92,72.284 92,48C92,31.798 83.223,17.629 70.17,9.994L72.186,6.538C86.426,14.868 96,30.325 96,48C96,74.492 74.492,96 48,96C21.508,96 0,74.492 0,48C0,30.325 9.574,14.868 23.814,6.538L25.83,9.994Z" style="fill:rgb(0,183,255);"/>
        </g>
    </g>
</svg>
